{"title":"The Gigolo 2 2016 HDRip Cantonese Movies xviD-TvMovize.mp4","uid":13895681,"size":742708444,"categoryP":"video","categoryS":"movies","magnet":"?xt=urn:btih:d6fb1c6300f54a89d8670d90cd4a562054803f82&amp;dn=The+Gigolo+2+2016+HDRip+Cantonese+Movies+xviD-TvMovize.mp4&amp;tr=udp%3A%2F%2Ftracker.leechers-paradise.org%3A6969&amp;tr=udp%3A%2F%2Fzer0day.ch%3A1337&amp;tr=udp%3A%2F%2Fopen.demonii.com%3A1337&amp;tr=udp%3A%2F%2Ftracker.coppersurfer.tk%3A6969&amp;tr=udp%3A%2F%2Fexodus.desync.com%3A6969","seeders":1,"leechers":0,"uploader":"TvMovize","files":1,"time":1458244202,"description":"The Gigolo 2 2016 HDRip Cantonese Movies xviD-TvMovize.mp4\r\n\r\n++ ScreenShots ++\r\n \nhttp://www.image2be.com/movie/TheGigolo2/1.html  \nhttp://www.image2be.com/movie/TheGigolo2/2.html  \nhttp://www.image2be.com/movie/TheGigolo2/3.html  \nhttp://www.image2be.com/movie/TheGigolo2/4.html  \nhttp://www.image2be.com/movie/TheGigolo2/5.html \r\n\r\n++ Info ++\r\n\r\nFormat : MPEG-4 \r\nFormat profile : Base Media \r\nCodec ID : isom (isom/iso2/avc1/mp41) \r\nFile size : 708 MiB \r\nDuration : 1h 36mn \r\nOverall bit rate : 1 030 Kbps \r\nWriting application : Lavf57.20.100 \r\n\r\nVideo \r\nID : 1 \r\nFormat : AVC \r\nFormat/Info : Advanced Video Codec \r\nFormat profile :    \r\nFormat settings, CABAC : Yes \r\nFormat settings, ReFrames : 5 frames \r\nCodec ID : avc1 \r\nCodec ID/Info : Advanced Video Coding \r\nDuration : 1h 36mn \r\nBit rate : 906 Kbps \r\nWidth : 720 pixels \r\nHeight : 306 pixels \r\nDisplay aspect ratio : 2.35:1 \r\nFrame rate mode : Variable \r\nFrame rate : 24.000 fps \r\nMinimum frame rate : 23.634 fps \r\nMaximum frame rate : 24.390 fps \r\nColor space : YUV \r\nChroma subsampling : 4:2:0 \r\nBit depth : 8 bits \r\nScan type : Progressive \r\nBits/(Pixel*Frame) : 0.171 \r\nStream size : 623 MiB (88%) \r\nTitle : X264 \r\nWriting library : x264 core 148 r2665 a01e339 \r\nEncoding settings : cabac=1 / ref=5 / deblock=1:-2:-2 / analyse=0x3:0x113 / me=umh / subme=8 / psy=1 / psy_rd=0.90:0.00 / mixed_ref=1 / me_range=16 / chroma_me=1 / trellis=1 / 8x8dct=1 / cqm=0 / deadzone=21,11 / fast_pskip=1 / chroma_qp_offset=-2 / threads=10 / lookahead_threads=1 / sliced_threads=0 / nr=0 / decimate=1 / interlaced=0 / bluray_compat=0 / constrained_intra=0 / bframes=3 / b_pyramid=2 / b_adapt=2 / b_bias=0 / direct=3 / weightb=1 / open_gop=0 / weightp=2 / keyint=250 / keyint_min=23 / scenecut=40 / intra_refresh=0 / rc_lookahead=50 / rc=crf / mbtree=1 / crf=19.0 / qcomp=0.60 / qpmin=0 / qpmax=69 / qpstep=4 / ip_ratio=1.40 / aq=1:1.00 \r\nLanguage : English \r\nColor range : Limited \r\nMatrix coefficients : BT.709 \r\nMenus : 3 \r\n\r\nAudio \r\nID : 2 \r\nFormat : AAC \r\nFormat/Info : Advanced Audio Codec \r\nFormat profile : LC \r\nCodec ID : 40 \r\nDuration : 1h 36mn \r\nBit rate mode : Constant \r\nBit rate : 116 Kbps \r\nChannel(s) : 2 channels \r\nChannel positions : Front: L R \r\nSampling rate : 48.0 KHz \r\nFrame rate : 46.875 fps (1024 spf) \r\nCompression mode : Lossy \r\nStream size : 80.0 MiB (11%) \r\nLanguage : Chinese \r\nDefault : Yes \r\nAlternate group : 1 \r\nMenus : 3 \r\n\r\nMenu #1 \r\nID : 3 \r\nCodec ID : text \r\nDuration : 1h 36mn \r\nLanguage : English \r\nBit rate mode : CBR \r\nMenu For : 1,2 \r\n00:00:00.000 : 00:00:00.000 \r\n00:05:23.292 : 00:05:23.292 \r\n00:11:29.917 : 00:11:29.917 \r\n00:15:42.417 : 00:15:42.417 \r\n00:19:51.292 : 00:19:51.292 \r\n00:23:17.000 : 00:23:17.000 \r\n00:28:29.500 : 00:28:29.500 \r\n00:33:36.500 : 00:33:36.500 \r\n00:40:00.458 : 00:40:00.458 \r\n00:43:49.542 : 00:43:49.542 \r\n00:53:46.417 : 00:53:46.417 \r\n00:57:19.958 : 00:57:19.958 \r\n01:02:22.667 : 01:02:22.667 \r\n01:06:23.500 : 01:06:23.500 \r\n01:11:10.417 : 01:11:10.417 \r\n01:17:12.292 : 01:17:12.292 \r\n01:22:00.375 : 01:22:00.375 \r\n01:29:36.500 : 01:29:36.500 \r\n\r\nMenu #2 \r\n00:00:00.000 : 00:00:00.000 \r\n00:05:23.292 : 00:05:23.292 \r\n00:11:29.917 : 00:11:29.917 \r\n00:15:42.417 : 00:15:42.417 \r\n00:19:51.292 : 00:19:51.292 \r\n00:23:17.000 : 00:23:17.000 \r\n00:28:29.500 : 00:28:29.500 \r\n00:33:36.500 : 00:33:36.500 \r\n00:40:00.458 : 00:40:00.458 \r\n00:43:49.542 : 00:43:49.542 \r\n00:53:46.417 : 00:53:46.417 \r\n00:57:19.958 : 00:57:19.958 \r\n01:02:22.667 : 01:02:22.667 \r\n01:06:23.500 : 01:06:23.500 \r\n01:11:10.417 : 01:11:10.417 \r\n01:17:12.292 : 01:17:12.292 \r\n01:22:00.375 : 01:22:00.375 \r\n01:29:36.500 : 01:29:36.500","torrent":{"xt":"urn:btih:d6fb1c6300f54a89d8670d90cd4a562054803f82","amp;dn":"The+Gigolo+2+2016+HDRip+Cantonese+Movies+xviD-TvMovize.mp4","amp;tr":["udp%3A%2F%2Ftracker.leechers-paradise.org%3A6969","udp%3A%2F%2Fzer0day.ch%3A1337","udp%3A%2F%2Fopen.demonii.com%3A1337","udp%3A%2F%2Ftracker.coppersurfer.tk%3A6969","udp%3A%2F%2Fexodus.desync.com%3A6969"],"infoHash":"d6fb1c6300f54a89d8670d90cd4a562054803f82","infoHashBuffer":{"type":"Buffer","data":[214,251,28,99,0,245,74,137,216,103,13,144,205,74,86,32,84,128,63,130]},"announce":[],"urlList":[]}}